<?xml version="1.0" encoding="iso-8859-1"?>
<!-- Generator: Adobe Illustrator 25.1.0, SVG Export Plug-In . SVG Version: 6.00 Build 0)  -->
<svg version="1.1" id="Layer_1" xmlns="http://www.w3.org/2000/svg" xmlns:xlink="http://www.w3.org/1999/xlink" x="0px" y="0px"
	 width="559.026px" height="641.857px" viewBox="0 0 559.026 641.857" enable-background="new 0 0 559.026 641.857"
	 xml:space="preserve">
<path fill="#1B453B" d="M385.262,409.24c42.859,40.064,87.115,29.815,87.115,29.815c-6.522,100.625,22.361,202.802,22.361,202.802
	c-60.561-16.15-170.969-97.985-170.969-97.985c-116.93,32.61-139.291,33.076-139.291,33.076
	c9.317-18.168,13.51-77.332-6.522-129.508s-4.193-199.852,136.496-199.852s165.379,87.581,187.274,143.483
	s57.3,100.159,57.3,100.159l-59.629-9.783c11.297-33.436-3.168-69.75-32.61-85.252C440.661,382.44,407.417,387.535,385.262,409.24
	 M98.586,381.891c21.622-43.311,58.408-46.256,58.408-46.256c0.881-2.246,1.892-4.821,3.045-7.619l-61.16-13.999
	C93.593,338.193,94.966,359.067,98.586,381.891z M112.63,274.052l60.217,28.483c-2.869,4.67-5.274,9.144-7.346,13.349
	l-63.328-14.495C104.758,292.823,108.194,283.772,112.63,274.052z M133.604,235.423l54.98,45.809
	c-3.059,3.484-5.829,6.949-8.349,10.367l-61.918-29.288c3.897-7.626,8.353-15.644,13.504-24.184
	C132.372,237.214,133.022,236.328,133.604,235.423z M161.809,204.094l49.464,55.849c-0.267,0.208-0.536,0.385-0.802,0.595
	c-4.695,3.697-8.949,7.459-12.86,11.239l-56.351-46.951C147.141,217.568,154.034,210.635,161.809,204.094z M199.63,178.84
	l37.224,64.474c-4.947,2.648-9.933,5.658-14.923,8.987l-49.837-56.27C180.533,189.861,189.763,184.112,199.63,178.84z
	 M243.714,159.946l20.306,71.568c-5.005,1.712-10.154,3.724-15.415,6.069l-37.296-64.598
	C221.597,168.113,232.444,163.749,243.714,159.946z M294.071,147.311v76.576c-5.389,0.903-11.285,2.132-17.576,3.808l-20.334-71.665
	C268.461,152.429,281.151,149.498,294.071,147.311z M319.111,221.384c-3.025,0.091-7.107,0.292-11.996,0.764v-76.783
	c28.738-3.695,58.192-3.636,86.391,1.009C317.379,177.077,319.111,221.384,319.111,221.384z M525.485,44.941
	c-28.184-18.168-171.435-88.047-346.596-5.59C96.647,78.066,19.333,147.311,3.826,263.904
	c-7.373,55.439,2.046,101.506,2.046,101.507c9.316,45.323,23.424,54.585,31.396,107.185c8.423,55.577-1.857,81.338-6.522,91.308
	C21.799,583.026,9.176,596.051,0,603.968c0,0,45.014-2.447,67.549-47.517c23.06-46.12,29.349-74.071,18.168-135.564
	s-23.759-104.817,29.349-192.864s237.586-141.154,357.777-75.469L525.485,44.941z"/>
<g>
</g>
<g>
</g>
<g>
</g>
<g>
</g>
<g>
</g>
</svg>
